<?xml version="1.0" standalone="no"?>
<!DOCTYPE svg PUBLIC "-//W3C//DTD SVG 20010904//EN"
 "http://www.w3.org/TR/2001/REC-SVG-20010904/DTD/svg10.dtd">
<svg version="1.0" xmlns="http://www.w3.org/2000/svg"
 width="152.000000pt" height="152.000000pt" viewBox="0 0 152.000000 152.000000"
 preserveAspectRatio="xMidYMid meet">
<metadata>
Created by potrace 1.14, written by Peter Selinger 2001-2017
</metadata>
<g transform="translate(0.000000,152.000000) scale(0.100000,-0.100000)"
fill="#000000" stroke="none">
<path d="M477 1375 c-9 -7 -17 -18 -18 -26 0 -8 -5 -3 -10 11 -10 24 -11 24
-24 6 -8 -10 -12 -23 -8 -28 3 -6 -4 -5 -15 1 -11 6 -23 16 -26 23 -3 7 -3 2
1 -12 5 -23 5 -24 -12 -10 -17 14 -18 13 -12 -3 4 -10 3 -16 -2 -12 -5 3 -17
-5 -25 -17 -9 -12 -16 -18 -16 -12 0 6 3 14 7 18 11 10 12 37 2 30 -5 -3 -6
-10 -3 -16 5 -7 2 -9 -7 -6 -8 3 -23 0 -34 -8 -15 -11 -22 -11 -34 -1 -14 10
-14 10 -3 -5 19 -24 7 -41 -19 -27 -20 10 -20 10 -4 -18 11 -17 12 -21 2 -10
-8 9 -20 17 -27 17 -10 0 -9 -4 1 -17 13 -15 12 -15 -7 -5 -17 9 -24 9 -33 -2
-6 -7 -7 -17 -3 -21 4 -5 -1 -5 -10 -2 -10 3 -20 2 -23 -3 -3 -5 9 -7 27 -5
26 3 29 2 15 -6 -9 -6 -15 -14 -12 -19 3 -5 0 -12 -6 -16 -8 -4 -9 -3 -5 4 4
7 2 12 -3 12 -6 0 -11 -5 -11 -11 0 -5 -4 -8 -9 -5 -5 4 -8 -2 -6 -11 1 -10
-3 -24 -9 -32 -8 -11 -8 -13 2 -7 7 4 12 1 12 -9 0 -9 -4 -14 -8 -11 -5 3 -9
-1 -9 -9 0 -8 5 -12 10 -8 5 3 6 -3 2 -16 -5 -17 -3 -20 12 -15 17 6 17 6 -1
-8 -17 -13 -17 -15 -1 -31 9 -10 21 -15 26 -12 5 4 9 1 9 -4 0 -13 -2 -13 -35
-1 -17 7 -24 7 -20 0 3 -6 13 -10 21 -10 8 0 13 -4 10 -8 -3 -5 1 -20 9 -35 7
-14 10 -29 7 -34 -4 -4 -3 -4 2 0 14 11 17 39 4 31 -7 -4 -8 -2 -4 5 4 6 12 9
17 5 6 -3 8 -8 5 -12 -3 -3 2 -10 11 -17 13 -9 13 -14 3 -20 -9 -6 -11 -4 -5
5 5 9 4 11 -4 6 -6 -4 -9 -12 -5 -17 3 -5 10 -6 16 -3 6 4 17 -1 24 -11 8 -11
19 -15 31 -11 9 4 14 4 10 0 -4 -4 -1 -14 6 -23 11 -14 10 -14 -5 -2 -10 7
-18 9 -18 3 0 -17 30 -23 36 -7 8 19 21 19 21 0 0 -8 -4 -12 -9 -9 -4 3 -8 -2
-8 -11 0 -9 4 -14 9 -10 5 3 13 0 17 -6 4 -7 3 -9 -3 -6 -15 10 -26 -24 -13
-37 8 -8 11 -7 8 3 -2 7 4 16 12 18 9 3 11 1 5 -4 -13 -10 -13 -23 -1 -42 7
-10 6 -12 -4 -6 -10 6 -12 0 -8 -25 4 -28 3 -31 -7 -16 -12 15 -13 14 -11 -8
1 -21 5 -25 21 -20 11 3 15 2 10 -3 -13 -10 -13 -23 -1 -42 7 -10 6 -12 -4 -6
-10 6 -12 0 -8 -23 3 -22 1 -29 -7 -22 -7 6 -11 2 -11 -11 0 -11 5 -18 11 -15
6 2 12 -5 12 -15 1 -10 -3 -19 -8 -19 -6 0 -8 4 -5 8 3 5 -1 9 -8 9 -11 0 -12
-4 -3 -18 6 -10 14 -16 17 -14 4 2 7 -3 7 -11 0 -9 -6 -13 -14 -10 -8 3 -12 2
-8 -3 3 -5 -1 -12 -7 -15 -7 -4 -3 -4 10 -2 18 3 21 1 13 -8 -6 -7 -9 -15 -7
-17 2 -2 7 -21 10 -41 6 -37 0 -44 -28 -39 -5 1 -4 -4 3 -12 6 -8 10 -19 9
-25 -3 -9 2 -12 17 -12 3 0 1 10 -5 23 -11 21 -10 21 4 3 11 -14 13 -24 5 -37
-9 -18 4 -29 14 -11 2 4 2 1 0 -5 -1 -7 -5 -19 -6 -25 -2 -7 -2 -10 0 -5 3 4
9 7 14 7 6 0 7 -5 4 -10 -3 -6 0 -10 8 -10 8 0 18 -7 21 -16 5 -14 4 -15 -9
-4 -9 7 -18 10 -22 6 -3 -3 -1 -6 6 -6 7 0 10 -4 6 -9 -3 -6 4 -8 15 -6 11 2
20 -1 20 -7 0 -7 7 -3 15 8 14 18 15 17 5 -8 -6 -19 -6 -29 2 -34 7 -4 8 -3 4
4 -4 7 -3 12 3 12 5 0 12 -6 14 -12 4 -10 6 -10 6 0 1 6 6 12 12 12 5 0 7 -5
3 -12 -5 -8 -2 -9 9 -5 10 4 20 0 26 -11 6 -9 11 -12 11 -7 0 6 10 16 23 24
l22 14 -20 -23 c-17 -19 -17 -22 -3 -17 9 3 19 3 21 -1 2 -4 3 -2 1 4 -1 6 6
16 16 22 15 9 21 8 32 -6 11 -15 11 -15 -3 -5 -9 7 -19 10 -22 6 -13 -13 -7
-18 22 -18 18 -1 27 4 24 11 -2 7 1 15 8 20 8 4 10 3 5 -4 -4 -7 -2 -12 4 -12
6 0 8 -5 4 -12 -4 -7 -3 -8 5 -4 6 4 9 11 6 16 -8 12 6 41 16 34 9 -5 13 10
10 30 -1 5 5 4 13 -4 19 -15 21 -24 4 -14 -7 4 -9 3 -5 -1 14 -16 36 -14 30 3
-5 11 -3 13 7 7 9 -5 11 -4 6 3 -4 7 -9 21 -11 33 -4 17 -2 19 10 9 17 -14 20
-24 5 -15 -16 10 -11 -1 7 -16 9 -8 14 -9 10 -2 -4 6 -1 14 5 16 10 4 10 6 1
6 -7 1 -13 6 -13 12 0 5 4 8 8 5 4 -2 14 4 21 16 10 16 10 19 -1 12 -22 -14
-47 -12 -41 3 4 11 8 11 21 1 13 -11 14 -9 8 16 -6 23 -4 27 8 23 9 -4 18 -2
21 3 4 6 -2 10 -12 11 -13 1 -11 3 7 9 14 4 18 8 10 9 -10 1 -16 12 -17 29 -1
15 1 21 4 15 2 -7 8 -13 12 -13 10 0 7 57 -3 67 -5 5 -6 2 -1 -7 6 -12 5 -12
-5 -3 -19 17 -3 32 28 27 19 -3 23 -2 13 5 -8 5 -22 8 -32 6 -13 -3 -16 1 -12
12 4 10 2 14 -4 10 -7 -5 -9 0 -6 13 3 11 9 22 13 25 5 3 6 -3 3 -14 -3 -10
-1 -21 4 -24 17 -11 5 48 -18 88 -21 37 -21 38 -2 20 11 -11 18 -24 15 -30 -3
-5 1 -4 9 2 16 15 33 17 24 3 -3 -5 -1 -10 5 -10 7 0 10 6 7 13 -2 6 -12 12
-21 12 -10 0 -22 9 -29 20 -9 18 -9 18 5 7 14 -11 16 -10 11 7 -3 12 -9 18
-14 15 -5 -3 -9 0 -9 5 0 6 5 11 11 11 8 0 8 4 0 14 -13 16 -4 49 11 40 6 -4
5 2 -1 14 -14 26 -14 35 -1 27 6 -3 7 1 4 9 -3 9 -11 13 -16 10 -6 -4 -8 -1
-6 7 3 8 11 13 17 11 9 -2 9 3 1 17 -13 25 -13 34 0 26 6 -3 7 1 4 9 -3 9 -10
13 -15 10 -18 -11 -2 36 17 52 18 14 18 15 -3 4 -14 -6 -23 -7 -23 -1 0 5 6
12 13 14 10 4 10 6 0 6 -7 1 -13 5 -13 11 0 5 6 7 14 4 8 -3 17 -1 20 4 3 5
-2 9 -11 8 -10 0 -18 5 -18 12 0 7 -7 17 -15 22 -12 7 -10 9 7 7 12 0 19 -5
17 -9 -3 -4 0 -8 6 -8 7 0 9 7 6 16 -3 9 -6 18 -6 20 0 3 -4 2 -10 -1 -15 -9
-12 7 5 32 8 12 11 24 6 27 -5 3 -7 15 -4 26 3 11 1 20 -5 20 -15 0 -21 25
-10 41 8 12 9 11 5 -2 -3 -8 3 -21 14 -27 18 -12 18 -11 0 21 -10 17 -24 31
-30 30 -6 -2 -11 2 -11 8 0 6 7 9 15 6 8 -4 17 -1 21 5 4 6 3 8 -3 5 -6 -4
-14 0 -17 9 -3 8 -2 12 3 9 5 -3 12 -2 15 3 3 5 -1 9 -9 10 -8 1 -22 3 -30 4
-8 1 -12 5 -9 10 3 4 1 8 -3 8 -5 0 -18 7 -29 16 -10 9 -2 6 19 -5 48 -26 57
-27 26 -1 -13 11 -30 24 -37 30 -7 6 -9 16 -6 22 4 7 2 8 -4 4 -7 -4 -12 -2
-12 5 0 7 -3 9 -6 6 -4 -4 -1 -13 5 -21 10 -12 9 -14 -6 -12 -12 2 -17 10 -15
24 2 11 -3 24 -9 28 -9 5 -10 2 -6 -9 3 -9 1 -19 -5 -23 -7 -5 -8 -2 -3 6 6
10 4 12 -8 7 -17 -6 -42 24 -31 36 5 5 -21 2 -36 -3 -3 -1 -9 -1 -15 0 -5 1
-17 3 -25 5 -9 2 -23 -3 -33 -10z m37 -7 c-4 -5 -8 -7 -12 -4 -3 3 -11 -2 -19
-12 -13 -15 -13 -15 -4 4 5 11 17 21 25 21 8 0 13 -4 10 -9z m66 -11 c0 -7 -4
-6 -10 3 -8 12 -10 12 -10 1 0 -8 -3 -12 -6 -8 -9 9 6 28 17 22 5 -4 9 -12 9
-18z m-283 -52 c0 -8 -4 -12 -9 -9 -4 3 -8 0 -8 -7 0 -7 -3 -9 -6 -6 -4 4 -1
13 6 22 15 19 17 19 17 0z m-27 -39 c0 -3 -4 -8 -10 -11 -5 -3 -10 -1 -10 4 0
6 5 11 10 11 6 0 10 -2 10 -4z m-96 -24 c3 -5 -1 -9 -9 -9 -8 0 -12 4 -9 9 3
4 7 8 9 8 2 0 6 -4 9 -8z m370 -33 c-6 -10 7 -40 15 -35 4 3 8 -7 9 -20 1 -14
-2 -23 -7 -20 -16 11 -5 -26 12 -39 20 -14 12 -26 -11 -19 -13 4 -13 3 1 -6
15 -10 23 -8 40 7 l21 18 -20 -26 c-10 -15 -26 -24 -34 -22 -11 3 -10 1 3 -10
15 -13 15 -15 2 -20 -8 -4 -12 -13 -9 -21 3 -8 1 -17 -5 -21 -6 -3 -11 -12
-11 -18 0 -7 5 -4 11 6 13 23 25 22 25 -2 0 -11 -4 -17 -9 -14 -5 3 -7 0 -5
-8 3 -8 11 -13 17 -11 7 1 10 -2 6 -8 -3 -6 -11 -8 -16 -5 -5 4 -7 -4 -6 -17
2 -13 8 -21 13 -18 5 3 8 9 6 15 -2 5 0 6 4 2 18 -18 12 -35 -11 -31 -13 2
-26 0 -29 -4 -5 -8 1 -10 43 -14 11 -1 17 -6 15 -10 -3 -5 -16 -5 -29 -2 -12
3 -26 1 -29 -4 -3 -5 2 -9 11 -8 9 0 18 -5 20 -12 3 -7 -1 -10 -10 -6 -8 3
-18 0 -22 -6 -3 -6 -3 -10 2 -9 4 1 15 1 23 0 12 -1 11 -4 -3 -12 -9 -6 -14
-15 -11 -21 4 -6 0 -15 -7 -20 -10 -6 -7 -7 10 -3 16 5 21 4 16 -4 -4 -7 -1
-19 7 -28 7 -9 8 -14 2 -10 -7 4 -14 0 -18 -8 -3 -8 -1 -15 5 -15 6 0 8 -4 4
-10 -3 -5 -13 -6 -23 -3 -13 4 -13 3 3 -10 17 -13 21 -13 30 0 9 12 11 11 11
-5 0 -16 -6 -19 -31 -16 l-30 4 28 -15 c15 -9 33 -13 39 -9 7 4 8 3 4 -4 -4
-7 -19 -10 -34 -6 -23 4 -24 3 -9 -6 9 -6 17 -15 17 -20 0 -5 -8 -7 -17 -4
-15 5 -15 3 1 -10 18 -15 13 -21 -15 -18 -3 1 -6 -5 -6 -13 0 -8 5 -11 10 -8
6 4 8 0 4 -10 -4 -10 -2 -14 6 -11 8 3 13 -4 13 -15 0 -11 -5 -17 -10 -14 -5
4 -7 -1 -3 -10 4 -10 -1 -21 -11 -27 -15 -10 -15 -11 2 -6 19 6 46 -9 46 -25
0 -5 -5 -9 -11 -9 -5 0 -8 4 -4 9 10 17 -10 20 -30 4 -15 -12 -16 -14 -3 -10
10 3 19 -1 22 -10 4 -10 2 -14 -8 -10 -11 4 -14 0 -11 -16 4 -20 3 -21 -9 -4
-20 26 -29 20 -10 -8 9 -14 21 -22 27 -18 6 4 7 1 2 -6 -5 -9 -10 -10 -18 -2
-17 17 -31 13 -17 -4 11 -13 10 -14 -5 -9 -14 6 -16 4 -10 -6 5 -9 4 -11 -3
-6 -9 5 -9 13 -2 26 12 23 13 33 1 26 -5 -4 -12 0 -15 6 -3 7 -3 3 -1 -9 3
-12 1 -24 -4 -28 -7 -3 -8 0 -5 9 4 11 0 14 -15 11 -27 -5 -26 -1 2 26 12 12
17 19 10 15 -33 -18 -56 33 -24 54 10 6 9 10 -5 19 -17 10 -15 11 9 7 26 -5
27 -4 12 16 -11 17 -12 25 -2 37 9 11 9 13 0 8 -6 -4 -14 -3 -18 3 -3 5 2 10
11 10 16 0 16 1 -2 15 -10 9 -13 14 -5 13 7 -2 15 5 16 15 2 10 -1 14 -8 10
-7 -4 -8 0 -4 11 5 12 3 15 -6 11 -6 -4 -3 1 8 11 17 14 17 16 3 11 -19 -7
-25 8 -8 18 6 4 8 11 5 16 -4 5 -3 15 2 22 10 15 12 68 3 62 -4 -3 -6 -16 -5
-30 2 -14 0 -27 -5 -30 -4 -2 -7 6 -6 18 0 12 -4 23 -9 25 -6 1 -10 -2 -10 -7
0 -5 -4 -13 -9 -18 -5 -5 -6 -3 -2 5 4 7 2 12 -5 12 -7 0 -4 6 6 14 11 8 23
12 27 10 5 -3 9 0 9 5 1 6 2 17 3 24 1 6 -2 18 -7 25 -7 8 -4 12 9 12 17 0 17
1 -1 13 -14 11 -15 16 -5 22 8 5 11 4 6 -3 -7 -12 20 -10 31 3 4 4 3 5 -4 1
-6 -3 -14 -2 -17 3 -8 13 -42 6 -39 -8 4 -17 -5 -13 -16 8 -9 16 -7 18 14 15
14 -1 25 2 25 7 0 6 4 8 9 5 11 -7 8 21 -4 31 -4 4 -5 3 -1 -4 10 -18 -9 -24
-29 -9 -14 10 -15 15 -5 21 9 6 11 4 5 -5 -5 -8 -3 -11 6 -8 16 5 19 35 8 59
-5 9 -3 21 3 27 9 9 9 12 -1 12 -7 0 -10 4 -7 9 3 4 -7 19 -22 32 -14 13 -20
16 -13 7 12 -16 11 -18 -8 -18 -12 0 -20 4 -17 9 7 11 -13 9 -32 -3 -7 -4 -19
-5 -27 -2 -8 3 -17 1 -20 -4 -4 -6 -11 -10 -17 -10 -5 0 0 9 13 19 17 14 26
16 31 8 5 -8 8 -8 8 -1 0 17 -12 25 -25 14 -8 -7 -15 -2 -24 16 -10 23 -9 26
9 31 11 3 17 9 14 14 -5 9 19 13 66 11 18 -1 21 1 11 7 -8 5 -22 8 -31 6 -9
-2 -17 3 -17 11 0 8 4 14 9 14 4 0 8 -4 8 -9 0 -5 8 -8 18 -6 9 1 24 -1 33 -6
11 -5 16 -3 16 6 0 8 -4 12 -8 9 -5 -3 -21 2 -36 11 -16 9 -19 13 -8 9 32 -10
76 -14 71 -6 -2 4 4 9 15 9 18 2 19 0 7 -14 -12 -15 -11 -15 9 -3 18 11 20 17
10 30 -9 12 -9 13 3 3 18 -17 35 -17 22 0 -8 10 -6 13 8 13 10 0 17 -3 14 -7z
m44 -20 c-3 -8 -7 -3 -11 10 -4 17 -3 21 5 13 5 -5 8 -16 6 -23z m-444 -38 c4
-5 -3 -7 -14 -4 -23 6 -26 13 -6 13 8 0 17 -4 20 -9z m469 -5 c4 -10 1 -13 -8
-9 -8 3 -12 9 -9 14 7 12 11 11 17 -5z m-478 -24 c-3 -3 -11 0 -18 7 -9 10 -8
11 6 5 10 -3 15 -9 12 -12z m146 -15 c-10 -9 -11 -8 -5 6 3 10 9 15 12 12 3
-3 0 -11 -7 -18z m318 9 c10 -12 9 -14 -6 -11 -10 2 -22 4 -26 4 -10 1 1 21
12 21 5 0 14 -6 20 -14z m154 -11 c-3 -9 -8 -14 -10 -11 -3 3 -2 9 2 15 9 16
15 13 8 -4z m-483 -21 c0 -8 -19 -13 -24 -6 -3 5 1 9 9 9 8 0 15 -2 15 -3z
m488 -18 c-7 -8 -15 -12 -17 -11 -5 6 10 25 20 25 5 0 4 -6 -3 -14z m-375 -63
c-5 -13 -10 -12 -43 15 -3 3 5 1 17 -2 19 -6 22 -4 17 11 -5 14 -4 15 4 4 6
-8 8 -20 5 -28z m62 17 c3 -5 1 -10 -4 -10 -6 0 -11 5 -11 10 0 6 2 10 4 10 3
0 8 -4 11 -10z m165 -14 c0 -9 -30 -14 -35 -6 -4 6 3 10 14 10 12 0 21 -2 21
-4z m124 -62 c3 -8 2 -12 -4 -9 -6 3 -10 10 -10 16 0 14 7 11 14 -7z m-284 -4
c0 -5 -5 -10 -11 -10 -5 0 -7 5 -4 10 3 6 8 10 11 10 2 0 4 -4 4 -10z m-215
-48 c-3 -3 -11 0 -18 7 -9 10 -8 11 6 5 10 -3 15 -9 12 -12z m525 -66 c0 -3
-4 -8 -10 -11 -5 -3 -10 -1 -10 4 0 6 5 11 10 11 6 0 10 -2 10 -4z m-293 -49
c0 -7 -9 -13 -19 -13 -18 0 -18 1 -2 13 10 7 18 13 19 13 1 0 2 -6 2 -13z
m143 -11 c0 -9 -30 -14 -35 -6 -4 6 3 10 14 10 12 0 21 -2 21 -4z m150 -20 c0
-3 -4 -8 -10 -11 -5 -3 -10 -1 -10 4 0 6 5 11 10 11 6 0 10 -2 10 -4z m-22
-41 c-3 -3 -9 2 -12 12 -6 14 -5 15 5 6 7 -7 10 -15 7 -18z m-1 -37 c-3 -8 -6
-5 -6 6 -1 11 2 17 5 13 3 -3 4 -12 1 -19z m-272 -8 c3 -5 1 -10 -4 -10 -6 0
-11 5 -11 10 0 6 2 10 4 10 3 0 8 -4 11 -10z m-135 -14 c0 -3 -4 -8 -10 -11
-5 -3 -10 -1 -10 4 0 6 5 11 10 11 6 0 10 -2 10 -4z m0 -60 c0 -3 -4 -8 -10
-11 -5 -3 -10 -1 -10 4 0 6 5 11 10 11 6 0 10 -2 10 -4z m140 -11 c11 -13 10
-14 -4 -9 -9 3 -16 10 -16 15 0 13 6 11 20 -6z m280 -13 c0 -5 -7 -9 -15 -9
-8 0 -12 4 -9 9 3 4 9 8 15 8 5 0 9 -4 9 -8z m-425 -11 c3 -5 2 -12 -3 -15 -5
-3 -9 1 -9 9 0 17 3 19 12 6z m285 -25 c0 -9 -30 -14 -35 -6 -4 6 3 10 14 10
12 0 21 -2 21 -4z m-166 -18 c-5 -8 -2 -9 12 -4 10 4 15 4 12 0 -4 -4 -3 -15
3 -25 7 -15 6 -17 -6 -13 -8 3 -13 10 -10 14 3 4 -2 11 -11 14 -13 5 -12 26 2
26 3 0 2 -5 -2 -12z m286 -8 c0 -5 -5 -10 -11 -10 -5 0 -7 5 -4 10 3 6 8 10
11 10 2 0 4 -4 4 -10z m-405 -19 c3 -5 2 -12 -3 -15 -5 -3 -9 1 -9 9 0 17 3
19 12 6z m-1 -39 c3 -5 -1 -9 -9 -9 -8 0 -12 4 -9 9 3 4 7 8 9 8 2 0 6 -4 9
-8z m413 -14 c-3 -8 -6 -5 -6 6 -1 11 2 17 5 13 3 -3 4 -12 1 -19z m-390 -158
c-2 -23 -10 -17 -12 10 -1 10 2 17 6 14 4 -2 7 -13 6 -24z m78 -69 c3 -5 2
-12 -3 -15 -5 -3 -9 1 -9 9 0 17 3 19 12 6z m165 -21 c0 -5 -5 -10 -11 -10 -5
0 -7 5 -4 10 3 6 8 10 11 10 2 0 4 -4 4 -10z"/>
<path d="M517 1175 c-16 -11 -16 -13 -2 -19 9 -3 13 -2 10 4 -9 14 8 12 25 -2
12 -11 12 -10 0 7 -8 11 -14 21 -15 22 0 1 -8 -4 -18 -12z"/>
<path d="M460 976 c0 -2 8 -10 18 -17 15 -13 16 -12 3 4 -13 16 -21 21 -21 13z"/>
<path d="M470 936 c0 -3 9 -10 20 -16 11 -6 20 -8 20 -6 0 3 -9 10 -20 16 -11
6 -20 8 -20 6z"/>
<path d="M563 713 c4 -3 1 -13 -6 -22 -11 -14 -10 -14 5 -2 16 12 16 31 1 31
-4 0 -3 -3 0 -7z"/>
<path d="M495 660 c-3 -5 -1 -10 4 -10 6 0 11 5 11 10 0 6 -2 10 -4 10 -3 0
-8 -4 -11 -10z"/>
<path d="M464 402 c3 -18 18 -20 24 -4 1 5 -4 12 -12 15 -9 4 -13 0 -12 -11z"/>
<path d="M1237 1382 c7 -4 7 -16 2 -29 -10 -28 -19 -30 -12 -4 5 21 -12 37
-22 21 -3 -5 -11 -10 -16 -10 -6 0 -7 6 -3 13 6 8 3 8 -9 -1 -9 -8 -22 -10
-28 -6 -8 4 -9 3 -5 -4 6 -11 -12 -17 -36 -13 -4 0 -4 -7 -1 -17 6 -15 5 -16
-12 -2 -17 14 -18 14 -6 -7 10 -19 9 -22 -4 -17 -8 4 -15 10 -15 15 0 5 -5 9
-11 9 -6 0 -7 -5 -2 -12 11 -19 12 -37 2 -44 -5 -3 -9 -2 -8 3 3 19 -2 33 -12
33 -5 0 -8 -4 -5 -9 8 -12 -4 -41 -16 -41 -6 0 -6 6 1 14 9 11 9 16 0 22 -7 4
-9 3 -5 -4 3 -6 2 -13 -4 -17 -6 -4 -7 -11 -4 -17 5 -7 1 -9 -9 -5 -11 4 -14
2 -11 -8 6 -15 -29 -38 -42 -27 -5 4 -2 -2 6 -12 13 -18 13 -19 -2 -14 -12 5
-16 1 -13 -18 1 -13 -4 -32 -12 -41 -13 -17 -13 -16 -4 3 8 16 7 21 -4 21 -8
0 -12 -4 -9 -9 3 -5 0 -15 -6 -23 -7 -8 -9 -15 -5 -15 4 0 -1 -12 -11 -27 -15
-24 -15 -26 -1 -14 11 8 17 9 17 3 0 -7 8 -9 18 -5 18 7 17 5 -12 -17 -18 -13
-19 -13 -11 0 8 13 6 13 -8 1 -9 -7 -14 -17 -11 -22 8 -14 16 -11 8 4 -4 6 -3
8 1 4 15 -14 15 -39 -1 -33 -8 3 -14 2 -14 -3 0 -13 38 -21 42 -9 2 6 9 4 16
-5 10 -12 8 -14 -17 -11 -23 3 -29 0 -25 -11 4 -9 0 -15 -7 -15 -9 0 -7 -5 5
-11 15 -9 16 -13 5 -20 -11 -7 -11 -9 -1 -9 7 0 15 7 18 15 4 8 10 15 16 15 5
0 2 -10 -6 -22 -20 -29 -20 -36 0 -34 9 0 18 -5 20 -12 1 -7 0 -8 -3 -2 -11
23 -25 8 -21 -25 3 -30 1 -34 -17 -31 -11 2 -14 1 -7 -1 7 -3 9 -9 6 -15 -4
-7 -2 -8 4 -4 8 4 10 2 6 -7 -3 -9 -14 -13 -27 -10 -18 3 -17 1 6 -12 33 -19
34 -24 3 -18 -13 3 -27 -1 -31 -8 -5 -7 -4 -10 3 -5 6 4 10 -1 9 -13 0 -11 -4
-18 -7 -16 -3 1 -12 -4 -20 -13 -13 -14 -12 -15 2 -10 12 5 15 1 13 -15 -5
-39 -16 -56 -33 -50 -10 3 -13 1 -7 -4 22 -18 37 -55 26 -66 -7 -7 -7 -17 0
-31 9 -19 9 -20 -4 -3 -8 9 -18 17 -22 17 -4 0 -2 -7 5 -15 6 -8 9 -19 6 -24
-8 -12 34 -52 45 -45 5 3 6 -2 2 -12 -5 -15 -7 -15 -15 0 -10 18 -28 22 -28 5
0 -5 5 -7 12 -3 8 5 9 2 5 -10 -5 -11 -3 -15 5 -10 8 5 9 1 4 -12 -6 -15 -5
-17 5 -7 7 7 17 13 22 13 5 0 1 -7 -7 -16 -16 -16 -9 -45 14 -59 6 -4 8 -11 4
-16 -3 -5 -2 -8 3 -7 9 3 103 -60 103 -69 0 -3 -6 0 -13 6 -10 8 -14 7 -14 -4
0 -7 3 -14 6 -13 20 2 31 -3 26 -12 -4 -6 -1 -9 7 -8 7 2 12 -2 11 -9 -2 -7 7
-10 23 -7 14 3 23 1 20 -4 -2 -4 0 -14 6 -22 8 -12 9 -12 4 2 -3 10 -1 18 4
18 6 0 10 -4 10 -10 0 -5 4 -10 9 -10 5 0 7 10 4 23 -3 12 -3 20 0 17 3 -3 7
-14 9 -25 3 -20 21 -45 33 -45 3 0 3 5 -1 11 -4 8 1 9 17 4 13 -4 26 -7 29 -7
21 0 30 3 26 10 -3 5 1 9 9 9 13 0 12 -4 -2 -19 -9 -10 -11 -18 -5 -18 6 0 14
5 17 10 4 6 14 9 23 8 10 -2 16 3 14 10 -1 8 2 11 8 7 6 -3 8 -10 5 -15 -3 -5
5 -14 17 -21 20 -11 21 -10 11 3 -10 12 -10 15 2 15 8 0 15 -4 15 -8 0 -10 48
-5 58 6 4 4 1 5 -5 1 -8 -4 -13 -1 -13 8 0 9 -5 16 -12 16 -6 0 -8 3 -5 6 4 4
13 1 22 -6 8 -7 15 -9 15 -4 0 5 4 3 9 -5 6 -9 11 -10 15 -2 4 6 3 11 -1 11
-5 0 -9 9 -10 20 -1 11 3 20 8 20 6 0 7 5 4 10 -4 6 -12 7 -18 3 -7 -4 -6 0 2
10 7 9 18 14 24 10 6 -3 7 -1 3 5 -4 6 -13 9 -21 5 -14 -5 -19 7 -16 36 2 7
-2 10 -8 6 -6 -3 -11 -1 -11 4 0 6 5 11 10 11 6 0 10 5 10 11 0 8 -4 9 -13 0
-8 -6 -18 -7 -22 -3 -5 4 -4 0 0 -8 8 -13 7 -13 -8 -1 -11 9 -17 10 -17 2 0
-6 -4 -11 -10 -11 -5 0 -7 7 -4 15 10 24 -12 17 -24 -8 -11 -22 -11 -22 -8 3
3 21 0 26 -18 27 -11 0 -15 -1 -8 -4 13 -5 17 -32 5 -34 -5 0 -16 -2 -25 -4
-12 -2 -15 2 -11 13 4 10 2 13 -5 8 -7 -4 -12 -2 -12 3 0 6 -5 11 -11 11 -5 0
-7 -6 -3 -12 4 -7 -1 -6 -12 3 -10 9 -26 14 -34 12 -12 -4 -12 -3 -1 5 10 7
11 14 2 31 l-12 21 -23 -26 c-16 -20 -23 -23 -23 -11 0 9 4 14 9 11 4 -3 8 7
8 21 0 15 -4 24 -10 20 -6 -4 -8 -11 -5 -16 3 -5 -1 -6 -10 -2 -11 4 -13 8 -6
13 8 5 9 13 1 31 -8 18 -10 19 -7 4 2 -11 -2 -26 -10 -33 -11 -11 -13 -9 -9
14 3 15 0 34 -6 41 -8 10 -7 13 3 13 12 0 12 2 1 9 -8 4 -13 11 -13 15 2 15 0
16 -21 5 -19 -9 -21 -9 -10 2 16 17 16 42 0 33 -7 -4 -10 -3 -5 1 4 5 0 19 -8
32 -15 23 -15 23 4 11 11 -6 17 -16 14 -22 -3 -5 -1 -6 5 -2 6 3 9 20 7 36 -2
17 -1 28 4 26 4 -3 6 5 5 17 -1 12 -3 26 -3 30 -1 5 -6 5 -13 1 -7 -4 -8 -3
-4 5 4 6 11 9 15 7 4 -3 17 2 29 10 18 13 20 19 11 36 -7 13 -7 18 -1 14 6 -3
13 -2 17 4 3 5 11 10 16 10 6 0 7 -5 3 -12 -4 -7 -3 -8 5 -4 6 4 9 12 6 17 -4
5 -1 9 5 9 7 0 10 7 6 15 -3 9 0 15 8 15 7 0 20 8 27 18 13 15 12 16 -4 3 -16
-13 -20 -12 -35 4 -13 15 -14 16 -1 7 22 -16 33 -2 11 15 -9 8 -11 12 -5 8 9
-4 11 -1 7 10 -5 11 -10 13 -19 5 -9 -8 -11 -4 -7 16 4 21 2 25 -9 19 -8 -5
-5 2 6 15 11 13 15 20 8 16 -13 -7 -37 27 -26 38 6 5 -12 10 -29 7 -5 0 -8 4
-8 10 0 6 10 8 23 5 12 -3 17 -3 10 0 -7 3 -9 13 -6 22 6 15 5 15 -10 3 -15
-12 -17 -12 -12 2 4 8 14 17 24 20 10 2 18 11 18 20 0 9 -6 13 -16 10 -13 -4
-13 -2 1 10 10 8 15 16 13 19 -3 3 3 11 12 19 17 13 17 13 3 -6 -14 -18 -13
-19 1 -8 9 7 19 10 22 6 4 -3 7 -4 7 0 0 3 -10 16 -22 28 l-23 23 29 -18 c16
-10 25 -13 21 -5 -6 9 -3 11 8 6 12 -4 14 -2 10 10 -5 13 -3 14 18 3 21 -12
23 -12 11 2 -10 13 -10 17 2 21 7 3 19 0 26 -6 9 -9 11 -9 7 -1 -4 7 0 14 8
18 8 3 15 0 15 -7 0 -8 4 -6 10 3 5 8 10 10 10 5 0 -20 39 -14 46 7 5 16 8 18
15 7 8 -12 10 -12 18 1 5 8 7 18 5 22 -3 4 0 8 6 8 7 0 9 -8 5 -20 -4 -11 -2
-20 4 -20 6 0 11 7 11 16 0 9 5 12 13 8 9 -6 9 -4 -1 8 -11 13 -10 16 5 14 13
-1 18 6 17 22 -1 17 3 22 15 18 13 -5 13 -4 -1 7 -10 8 -15 17 -11 21 10 10
11 46 1 40 -5 -4 -7 -12 -4 -20 9 -22 -9 -24 -23 -2 -7 11 -8 18 -3 14 5 -3 9
1 9 8 0 8 -8 11 -21 8 -21 -4 -21 -4 -1 12 20 17 20 17 -1 7 -15 -7 -26 -7
-40 3 -23 17 -45 10 -36 -12 5 -14 4 -15 -10 -2 -9 8 -15 17 -13 20 2 3 -8 6
-22 7 -15 0 -21 -2 -16 -5z m88 -11 c3 -5 2 -12 -3 -15 -5 -3 -9 1 -9 9 0 17
3 19 12 6z m-151 -26 c-7 -16 -24 -21 -24 -6 0 8 7 13 27 20 1 1 0 -6 -3 -14z
m169 0 c-3 -9 -8 -14 -10 -11 -3 3 -2 9 2 15 9 16 15 13 8 -4z m47 -39 c0 -3
-4 -8 -10 -11 -5 -3 -10 -1 -10 4 0 6 5 11 10 11 6 0 10 -2 10 -4z m17 -31 c0
-8 -4 -12 -9 -9 -4 3 -8 9 -8 15 0 5 4 9 8 9 5 0 9 -7 9 -15z m-401 -60 c-1
-8 -5 -17 -8 -21 -5 -4 -4 16 1 34 3 9 9 -1 7 -13z m255 -4 c0 10 2 11 6 1 2
-6 9 -10 14 -6 5 3 9 0 9 -6 0 -6 5 -8 12 -4 7 4 8 3 4 -4 -5 -8 -13 -9 -25
-2 -10 5 -20 7 -23 5 -3 -3 -13 5 -24 17 l-19 23 23 -19 c17 -15 22 -16 23 -5z
m-36 -11 c3 -5 1 -10 -4 -10 -6 0 -11 5 -11 10 0 6 2 10 4 10 3 0 8 -4 11 -10z
m-58 -15 c0 -8 -4 -15 -9 -15 -10 0 -11 14 -1 23 9 10 10 9 10 -8z m-207 -59
c0 -2 -7 -7 -16 -10 -8 -3 -12 -2 -9 4 6 10 25 14 25 6z m-41 -24 c7 -13 6
-19 -2 -19 -7 0 -13 9 -13 19 0 10 1 18 3 18 1 0 7 -8 12 -18z m171 -183 c0
-3 -9 -9 -19 -12 -13 -3 -18 0 -15 7 5 13 34 18 34 5z m-160 -144 c-7 -9 -15
-13 -19 -10 -3 3 1 10 9 15 21 14 24 12 10 -5z m-29 -68 c-10 -9 -11 -8 -5 6
3 10 9 15 12 12 3 -3 0 -11 -7 -18z m169 -3 c0 -8 -19 -13 -24 -6 -3 5 1 9 9
9 8 0 15 -2 15 -3z m-56 -63 c3 -5 0 -11 -7 -14 -8 -3 -14 1 -14 9 0 16 13 19
21 5z m4 -56 c-3 -3 -9 2 -12 12 -6 14 -5 15 5 6 7 -7 10 -15 7 -18z m-145
-66 c-8 -8 -13 -7 -18 2 -6 8 -4 10 5 4 10 -6 12 -4 6 11 -6 15 -5 17 5 7 9
-10 10 -16 2 -24z m117 1 c0 -5 -4 -10 -10 -10 -5 0 -10 5 -10 10 0 6 5 10 10
10 6 0 10 -4 10 -10z m46 -32 c-1 -7 -5 -19 -9 -25 -5 -9 -2 -13 9 -13 10 0
15 -3 11 -6 -11 -12 -39 5 -30 18 4 7 8 16 9 21 3 14 4 17 8 17 2 0 3 -6 2
-12z m-176 -12 c-7 -7 -14 -6 -21 1 -9 9 -7 12 9 10 14 -1 18 -5 12 -11z m33
-113 c2 -15 22 -31 32 -25 6 3 7 2 3 -3 -4 -4 -2 -15 4 -24 7 -9 -2 -3 -20 13
-17 16 -29 33 -26 38 3 4 0 8 -6 8 -6 0 -8 5 -4 12 7 12 13 5 17 -19z m252 -3
c3 -5 1 -10 -4 -10 -6 0 -11 5 -11 10 0 6 2 10 4 10 3 0 8 -4 11 -10z m-174
-57 c13 -16 12 -17 -3 -4 -10 7 -18 15 -18 17 0 8 8 3 21 -13z m75 -86 c1 -9
-2 -15 -7 -11 -5 3 -7 9 -4 14 3 4 0 11 -5 13 -6 3 -5 4 1 3 7 -1 13 -10 15
-19z m25 0 c-10 -9 -11 -8 -5 6 3 10 9 15 12 12 3 -3 0 -11 -7 -18z m101 -46
c-4 -10 -7 -11 -10 -3 -3 10 -7 10 -18 1 -9 -7 -14 -8 -14 -1 0 6 6 12 13 15
24 8 35 3 29 -12z m228 15 c0 -3 -4 -8 -10 -11 -5 -3 -10 -1 -10 4 0 6 5 11
10 11 6 0 10 -2 10 -4z"/>
<path d="M603 1365 c0 -8 4 -12 9 -9 5 3 6 10 3 15 -9 13 -12 11 -12 -6z"/>
<path d="M955 1240 c-3 -5 -1 -10 4 -10 6 0 11 5 11 10 0 6 -2 10 -4 10 -3 0
-8 -4 -11 -10z"/>
<path d="M1115 1079 c-4 -6 -5 -12 -2 -15 2 -3 7 2 10 11 7 17 1 20 -8 4z"/>
<path d="M81 1044 c0 -11 3 -14 6 -6 3 7 2 16 -1 19 -3 4 -6 -2 -5 -13z"/>
<path d="M270 739 c0 -5 5 -7 10 -4 6 3 10 8 10 11 0 2 -4 4 -10 4 -5 0 -10
-5 -10 -11z"/>
<path d="M765 700 c-3 -5 -2 -10 4 -10 5 0 13 5 16 10 3 6 2 10 -4 10 -5 0
-13 -4 -16 -10z"/>
<path d="M828 647 c4 -14 7 -16 13 -5 12 19 11 25 -5 25 -8 0 -11 -8 -8 -20z"/>
<path d="M1050 659 c0 -5 5 -7 10 -4 6 3 10 8 10 11 0 2 -4 4 -10 4 -5 0 -10
-5 -10 -11z"/>
<path d="M270 641 c0 -6 4 -12 8 -15 5 -3 9 1 9 9 0 8 -4 15 -9 15 -4 0 -8 -4
-8 -9z"/>
<path d="M795 630 c-3 -6 1 -7 9 -4 18 7 21 14 7 14 -6 0 -13 -4 -16 -10z"/>
<path d="M780 566 c0 -2 8 -10 18 -17 15 -13 16 -12 3 4 -13 16 -21 21 -21 13z"/>
<path d="M818 563 c6 -2 9 -10 6 -15 -4 -7 -2 -8 4 -4 18 11 14 26 -5 25 -11
0 -13 -3 -5 -6z"/>
<path d="M1030 540 c0 -5 5 -10 11 -10 5 0 7 5 4 10 -3 6 -8 10 -11 10 -2 0
-4 -4 -4 -10z"/>
<path d="M268 405 c2 -14 8 -25 12 -25 10 0 1 38 -10 45 -4 2 -5 -7 -2 -20z"/>
<path d="M1176 339 c2 -4 11 -6 19 -3 7 3 23 -4 34 -15 11 -11 22 -17 24 -13
7 13 -28 37 -55 38 -15 1 -25 -2 -22 -7z"/>
<path d="M747 309 c7 -7 15 -10 18 -7 3 3 -2 9 -12 12 -14 6 -15 5 -6 -5z"/>
<path d="M1395 280 c-3 -5 -1 -10 4 -10 6 0 11 5 11 10 0 6 -2 10 -4 10 -3 0
-8 -4 -11 -10z"/>
<path d="M936 272 c-3 -5 1 -9 9 -9 8 0 12 4 9 9 -3 4 -7 8 -9 8 -2 0 -6 -4
-9 -8z"/>
<path d="M639 168 c-11 -8 -11 -9 3 -5 9 3 18 1 21 -6 2 -8 5 -8 10 0 9 15
-17 23 -34 11z"/>
<path d="M440 140 c-9 -6 -10 -10 -3 -10 6 0 15 5 18 10 8 12 4 12 -15 0z"/>
<path d="M1243 126 c-3 -6 -3 -8 2 -4 4 4 13 3 20 -2 8 -7 12 -5 12 3 0 16
-25 18 -34 3z"/>
</g>
</svg>
